<svg width="192" height="192" viewBox="0 0 192 192" fill="none" xmlns="http://www.w3.org/2000/svg">
<path d="M120 104C120 97.6348 117.471 91.5303 112.971 87.0294C108.47 82.5286 102.365 80 96 80C89.6348 80 83.5303 82.5286 79.0294 87.0294C74.5286 91.5303 72 97.6348 72 104" stroke="black" stroke-width="16" stroke-linecap="round" stroke-linejoin="round"/>
<path d="M32 156V36C32 30.6957 34.1071 25.6086 37.8579 21.8579C41.6086 18.1071 46.6957 16 52 16H152C154.122 16 156.157 16.8429 157.657 18.3431C159.157 19.8434 160 21.8783 160 24V168C160 170.122 159.157 172.157 157.657 173.657C156.157 175.157 154.122 176 152 176H52C46.6957 176 41.6086 173.893 37.8579 170.142C34.1071 166.391 32 161.304 32 156ZM32 156C32 150.696 34.1071 145.609 37.8579 141.858C41.6086 138.107 46.6957 136 52 136H160" stroke="black" stroke-width="16" stroke-linecap="round" stroke-linejoin="round"/>
<path d="M96 80C104.837 80 112 72.8366 112 64C112 55.1634 104.837 48 96 48C87.1634 48 80 55.1634 80 64C80 72.8366 87.1634 80 96 80Z" stroke="black" stroke-width="16" stroke-linecap="round" stroke-linejoin="round"/>
</svg>
