<svg width="985" height="256" viewBox="0 0 985 256" fill="none" xmlns="http://www.w3.org/2000/svg">
<path d="M261.664 174V162.736H285.856C293.195 162.736 299.467 161.243 304.672 158.256C309.963 155.269 314.016 151.131 316.832 145.84C319.648 140.549 321.056 134.405 321.056 127.408C321.056 120.496 319.648 114.48 316.832 109.36C314.101 104.24 310.091 100.272 304.8 97.456C299.595 94.5547 293.28 93.104 285.856 93.104H261.792V81.84H285.856C295.755 81.84 304.373 83.7173 311.712 87.472C319.051 91.2267 324.725 96.56 328.736 103.472C332.832 110.299 334.88 118.363 334.88 127.664C334.88 136.965 332.832 145.115 328.736 152.112C324.64 159.024 318.923 164.4 311.584 168.24C304.331 172.08 295.797 174 285.984 174H261.664ZM253.472 174V81.84H267.04V174H253.472ZM370.342 175.28C365.99 175.28 362.15 174.384 358.822 172.592C355.494 170.715 352.891 168.155 351.014 164.912C349.222 161.669 348.326 157.957 348.326 153.776V108.72H361.638V150.704C361.638 155.227 362.747 158.597 364.966 160.816C367.185 163.035 370.342 164.144 374.438 164.144C378.107 164.144 381.35 163.291 384.166 161.584C387.067 159.877 389.329 157.531 390.95 154.544C392.657 151.472 393.51 147.931 393.51 143.92L395.174 159.536C393.041 164.315 389.755 168.155 385.318 171.056C380.966 173.872 375.974 175.28 370.342 175.28ZM394.022 174V158.64H393.51V108.72H406.694V174H394.022ZM425.344 174V108.72H438.016V124.08H438.656V174H425.344ZM469.376 174V131.376C469.376 126.939 468.352 123.696 466.304 121.648C464.256 119.6 461.312 118.576 457.472 118.576C453.888 118.576 450.645 119.429 447.744 121.136C444.928 122.757 442.709 125.061 441.088 128.048C439.467 130.949 438.656 134.405 438.656 138.416L436.992 123.184C439.125 118.32 442.325 114.48 446.592 111.664C450.944 108.848 455.808 107.44 461.184 107.44C467.669 107.44 472.832 109.317 476.672 113.072C480.597 116.827 482.56 121.776 482.56 127.92V174H469.376ZM513.408 174V131.376C513.408 126.939 512.341 123.696 510.208 121.648C508.16 119.6 505.216 118.576 501.376 118.576C497.877 118.576 494.677 119.429 491.776 121.136C488.96 122.757 486.699 125.061 484.992 128.048C483.371 130.949 482.56 134.405 482.56 138.416L479.872 123.184C482.091 118.32 485.419 114.48 489.856 111.664C494.379 108.848 499.413 107.44 504.96 107.44C511.531 107.44 516.779 109.36 520.704 113.2C524.629 116.955 526.592 121.989 526.592 128.304V174H513.408ZM544.469 174V108.72H557.141V124.08H557.781V174H544.469ZM588.501 174V131.376C588.501 126.939 587.477 123.696 585.429 121.648C583.381 119.6 580.437 118.576 576.597 118.576C573.013 118.576 569.77 119.429 566.869 121.136C564.053 122.757 561.834 125.061 560.213 128.048C558.592 130.949 557.781 134.405 557.781 138.416L556.117 123.184C558.25 118.32 561.45 114.48 565.717 111.664C570.069 108.848 574.933 107.44 580.309 107.44C586.794 107.44 591.957 109.317 595.797 113.072C599.722 116.827 601.685 121.776 601.685 127.92V174H588.501ZM632.533 174V131.376C632.533 126.939 631.466 123.696 629.333 121.648C627.285 119.6 624.341 118.576 620.501 118.576C617.002 118.576 613.802 119.429 610.901 121.136C608.085 122.757 605.824 125.061 604.117 128.048C602.496 130.949 601.685 134.405 601.685 138.416L598.997 123.184C601.216 118.32 604.544 114.48 608.981 111.664C613.504 108.848 618.538 107.44 624.085 107.44C630.656 107.44 635.904 109.36 639.829 113.2C643.754 116.955 645.717 121.989 645.717 128.304V174H632.533ZM665.708 200.24L681.452 164.272L684.14 160.048L703.98 108.72H717.804L679.404 200.24H665.708ZM680.812 174L652.908 108.72H667.372L691.052 167.472L680.812 174ZM728.847 174V81.84H742.415V174H728.847ZM769.539 174V162.736H793.731C801.07 162.736 807.342 161.243 812.547 158.256C817.838 155.269 821.891 151.131 824.707 145.84C827.523 140.549 828.931 134.405 828.931 127.408C828.931 120.496 827.523 114.48 824.707 109.36C821.976 104.24 817.966 100.272 812.675 97.456C807.47 94.5547 801.155 93.104 793.731 93.104H769.667V81.84H793.731C803.63 81.84 812.248 83.7173 819.587 87.472C826.926 91.2267 832.6 96.56 836.611 103.472C840.707 110.299 842.755 118.363 842.755 127.664C842.755 136.965 840.707 145.115 836.611 152.112C832.515 159.024 826.798 164.4 819.459 168.24C812.206 172.08 803.672 174 793.859 174H769.539ZM761.347 174V81.84H774.915V174H761.347ZM857.722 174V81.84H896.762C903.418 81.84 909.093 82.9493 913.786 85.168C918.479 87.3867 922.063 90.544 924.538 94.64C927.098 98.736 928.378 103.6 928.378 109.232C928.378 114.949 927.098 119.899 924.538 124.08C922.063 128.176 918.437 131.376 913.658 133.68C908.965 135.984 903.333 137.136 896.762 137.136H868.09V125.872H896.122C902.181 125.872 906.789 124.421 909.946 121.52C913.189 118.619 914.81 114.565 914.81 109.36C914.81 104.069 913.231 100.016 910.074 97.2C906.917 94.384 902.266 92.976 896.122 92.976H871.29V174H857.722Z" fill="black"/>
<path d="M146 136C146 129.635 143.471 123.53 138.971 119.029C134.47 114.529 128.365 112 122 112C115.635 112 109.53 114.529 105.029 119.029C100.529 123.53 98 129.635 98 136" stroke="black" stroke-width="16" stroke-linecap="round" stroke-linejoin="round"/>
<path d="M58 188V68C58 62.6957 60.1071 57.6086 63.8579 53.8579C67.6086 50.1071 72.6957 48 78 48H178C180.122 48 182.157 48.8429 183.657 50.3431C185.157 51.8434 186 53.8783 186 56V200C186 202.122 185.157 204.157 183.657 205.657C182.157 207.157 180.122 208 178 208H78C72.6957 208 67.6086 205.893 63.8579 202.142C60.1071 198.391 58 193.304 58 188ZM58 188C58 182.696 60.1071 177.609 63.8579 173.858C67.6086 170.107 72.6957 168 78 168H186" stroke="black" stroke-width="16" stroke-linecap="round" stroke-linejoin="round"/>
<path d="M122 112C130.837 112 138 104.837 138 96C138 87.1634 130.837 80 122 80C113.163 80 106 87.1634 106 96C106 104.837 113.163 112 122 112Z" stroke="black" stroke-width="16" stroke-linecap="round" stroke-linejoin="round"/>
</svg>
